<svg width="17" height="17" viewBox="0 0 17 17" fill="none" xmlns="http://www.w3.org/2000/svg">
<g clip-path="url(#clip0_319_21)">
<path d="M8 0.25C9.06087 0.25 10.0783 0.671427 10.8284 1.42157C11.5786 2.17172 12 3.18913 12 4.25C12 5.31087 11.5786 6.32828 10.8284 7.07843C10.0783 7.82857 9.06087 8.25 8 8.25C6.93913 8.25 5.92172 7.82857 5.17157 7.07843C4.42143 6.32828 4 5.31087 4 4.25C4 3.18913 4.42143 2.17172 5.17157 1.42157C5.92172 0.671427 6.93913 0.25 8 0.25ZM8 10.25C12.42 10.25 16 12.04 16 14.25V16.25H0V14.25C0 12.04 3.58 10.25 8 10.25Z" fill="black"/>
</g>
<defs>
<clipPath id="clip0_319_21">
<rect width="16.5" height="16.5" fill="white"/>
</clipPath>
</defs>
</svg>
