<svg width="617" height="878" viewBox="0 0 617 878" fill="none" xmlns="http://www.w3.org/2000/svg">
<g clip-path="url(#clip0_335_12)">
<path d="M274.686 769.624C298.769 798.562 321.984 830.881 352.994 853.074C383.172 874.672 423.713 887.143 460.521 889.657C474.399 890.605 497.552 890.703 507.273 877.385C523.292 855.437 512.032 810.006 505.169 787.856C489.544 737.426 462.723 689.793 441.353 641.759C415.821 584.369 396.168 519.907 360.474 467.611C355.531 460.369 331.518 426.616 317.112 434.067C309.055 438.235 306.172 452.004 304.606 458.495C298.696 482.998 297.643 502.712 297.243 528.505C295.174 661.974 320.709 800.958 430.601 888.839C452.587 906.422 472.521 915.163 497.455 926.006C502.474 928.189 520.97 934.009 526.207 940.031C540.529 956.502 490.155 967.326 468.703 971.355C364.493 990.923 253.58 986.01 149.393 968.9C98.9848 960.622 -16.1111 938.743 1.89282 861.49C11.7426 819.225 49.6651 790.59 86.9799 773.13C149.193 744.019 220.122 746.599 284.036 723.106C320.229 709.803 355.438 689.872 374.616 655.083C391.985 623.577 396.338 576.869 386.772 542.296C375.977 503.286 308.327 459.241 275.153 501.272C249.526 533.741 250.286 587.713 249.908 626.331C249.395 678.696 253.372 732.575 276.088 780.61C286.384 802.381 301.996 819.861 316.177 838.932C325.916 852.029 332.565 864.799 330.67 881.476C324.136 938.981 239.517 946.263 196.144 947.512C140.325 949.118 52.4983 948.575 20.1258 891.878C3.7442 863.187 14.7736 823.509 38.5925 802.116C57.7619 784.898 89.1213 775.135 112.226 768.221C141.76 759.383 217.053 741.845 245.7 735.261C298.021 723.237 352.143 714.42 402.784 695.99C440.873 682.129 480.68 661.18 487.988 617.332C500.405 542.831 428.278 499.964 364.915 488.649C340.293 484.252 312.907 484.443 291.399 498.934C262.836 518.179 267.091 560.527 272.582 589.515C286.754 664.334 324.333 733.761 370.175 793.817C400.156 833.095 438.231 864.882 468.586 903.799C481.902 920.871 538.787 993.361 493.481 1007.35C481.518 1011.05 457.427 1011.37 446.262 1011.56C423.124 1011.97 399.976 1011.89 376.837 1011.56C328.551 1010.87 279.254 1008.76 234.48 988.419C204.189 974.661 176.703 953.509 158.042 925.772C140.285 899.381 128.299 858.972 145.302 828.997C170.359 784.826 247.317 782.442 289.997 776.286C374.561 764.087 461.151 759.175 543.622 735.378C589.022 722.278 717.556 673.293 669.967 601.319C649.353 570.144 609.275 554.691 575.763 543.582C524.458 526.574 467.201 517.346 421.251 553.166C379.449 585.751 382.924 626.494 405.589 671.446C421.573 703.147 464.396 759.033 488.572 785.051C513.515 811.895 534.771 828.36 566.413 845.36C607.653 867.518 655.493 879.514 693.342 908.007C710.574 920.979 717.815 937.343 712.276 958.498C708.099 974.453 699.69 993.51 686.446 1004.08C663.56 1022.35 623.741 1017.4 597.152 1014.48C530.478 1007.16 456.024 973.79 415.991 917.357C406.159 903.498 399.281 884.425 398.81 867.333C397.966 836.756 428.149 834.009 451.639 830.166C492.063 823.553 534.414 815.907 575.529 815.907" stroke="white" stroke-width="6" stroke-linecap="round"/>
<path d="M693.033 429.21C701.205 489.19 709.798 549.138 717.344 609.201C719.216 624.101 733.04 670.237 707.76 675.121C689.929 678.565 670.363 669.013 655.282 661.329C623.712 645.243 594.101 624.386 565.87 603.124C534.316 579.359 503.556 553.876 476.225 525.283C455.613 503.72 436.231 479.943 435.785 448.728C434.93 388.866 530.299 393.892 569.494 390.172C616.202 385.74 664.43 382.697 709.396 367.966C739.171 358.211 765.616 343.402 778.237 313.501C806.036 247.645 750.14 198.483 694.202 175.935C657.278 161.052 616.095 153.263 576.389 151.274C538.133 149.358 506.681 155.915 495.744 197.09C468.367 300.154 502.834 411.926 559.793 497.7C593.955 549.145 635.971 595.324 675.151 642.862C696.852 669.192 721.788 696.729 737.213 727.716C752.977 759.383 699.357 747.135 684.852 745.247C635.001 738.759 586.232 726.833 538.17 712.288C480.392 694.802 419.449 675.393 368.581 641.927C332.839 618.413 290.912 568.559 330.478 527.621C363.906 493.034 422.348 481.538 466.057 469.416C513.254 456.326 562.581 445.495 609.816 432.482C637.437 424.873 681.105 412.676 707.994 398.588C732.812 385.583 756.146 364.612 759.303 335.24C762.681 303.816 745.007 271.862 726.46 248.049C665.441 169.703 552.881 130.621 456.239 127.548C432.713 126.8 404.256 128.92 396.397 156.65C384.231 199.584 407.079 248.136 430.409 281.944C517.504 408.153 654.555 481.434 772.393 573.554C794.899 591.148 852.495 637.726 797.99 654.433C760.474 665.933 717.915 664.88 679.242 664.835C610.117 664.756 540.274 661.037 474.004 639.59C394.68 613.917 310.013 565.436 276.247 485.077C264.51 457.146 251.906 414.077 266.663 384.562C284.146 349.596 336.555 346.209 369.282 342.954C433.797 336.536 499.294 339.467 564 338.045C612.779 336.973 668.128 338.198 714.773 320.513C742.794 309.889 764.393 289.264 770.29 259.386C780.056 209.906 747.27 164.522 713.955 131.989C674.502 93.4631 626.906 65.0975 577.091 42.1102C543.813 26.7543 498.834 4.8628 460.797 4.00803C436.18 3.45484 434.614 31.6103 433.798 50.0579C431.252 107.689 442.616 166.73 454.486 222.686C483.32 358.62 527.896 486.723 601.518 604.877C616.418 628.789 637.169 654.013 648.386 680.263C661.468 710.878 593.808 684.941 591.116 684.003C526.158 661.365 463.552 629.322 402.358 598.332C347.083 570.339 291.626 541.427 240.249 506.583C227.75 498.106 206.372 485.242 201.913 468.831C194.245 440.615 236.897 431.856 254.625 427.807C326.391 411.417 401.158 406.185 473.887 394.964C474.243 394.91 502.664 393.555 502.289 385.965C501.818 376.436 484.493 365.543 478.446 359.784" stroke="white" stroke-width="6" stroke-linecap="round"/>
</g>
<defs>
<clipPath id="clip0_335_12">
<rect width="617" height="878" fill="white"/>
</clipPath>
</defs>
</svg>
