<svg width="221" height="187" viewBox="0 0 221 187" fill="none" xmlns="http://www.w3.org/2000/svg">
<path d="M147.52 187L110.5 134.931L95.3553 173.003L85.8198 134.931L62.8223 151.168V122.054L0 139.41L53.2868 102.458L11.2183 94.6198L53.2868 89.021L24.1193 61.5868L66.7487 68.3054L49.9213 18.476L88.6244 54.3084L95.3553 34.1527L107.135 52.6287L129.571 0L133.497 55.988L160.982 39.7515L154.812 69.985L221 46.4701L170.518 89.021L206.416 96.8593L160.982 110.856L174.444 151.168L139.668 125.973L147.52 187Z" fill="#525387"/>
<path d="M143.5 177L110.5 130.5L97 164.5L88.5 130.5L68 145V119L12 134.5L59.5 101.5L22 94.5L59.5 89.5L33.5 65L71.5 71L56.5 26.5L91 58.5L97 40.5L107.5 57L127.5 10L131 60L155.5 45.5L150 72.5L209 51.5L164 89.5L196 96.5L155.5 109L167.5 145L136.5 122.5L143.5 177Z" fill="#FED500"/>
<path d="M83.5 33.5L69 3H78.5L83.5 33.5Z" fill="#525387" stroke="#525387" stroke-width="4"/>
<path d="M170.092 117.953L199.791 130.646L195.101 135.792L170.092 117.953Z" fill="#525387" stroke="#525387" stroke-width="4"/>
<path d="M149.5 145.56L160.628 163.091L156.27 164.113L149.5 145.56Z" fill="#525387" stroke="#525387" stroke-width="4"/>
<path d="M51.9478 136L37.6182 151.028L35.5755 147.045L51.9478 136Z" fill="#525387" stroke="#525387" stroke-width="4"/>
<path d="M89 74L133 118" stroke="#D54242" stroke-width="10"/>
<path d="M133 74L89 118" stroke="#D54242" stroke-width="10"/>
</svg>
