<svg width="228" height="675" viewBox="0 0 228 675" fill="none" xmlns="http://www.w3.org/2000/svg">
<path d="M136 0H228V675H0L136 0Z" fill="white"/>
<path d="M130 383L228 415V675H74L130 383Z" fill="#2E2F60"/>
<path fill-rule="evenodd" clip-rule="evenodd" d="M127.777 40.8136C130.454 40.3927 133.064 40.141 135.351 39.9205L135.353 39.9203C135.787 39.8784 136.209 39.8377 136.618 39.7971C145.061 38.9598 153.588 38.7341 162.102 38.6705C158.437 34.5402 154.977 30.187 151.774 25.5591C148.708 21.1293 145.656 15.7092 143.77 9.96205C142.708 6.72392 142.01 3.36036 141.898 0H143.9C144.01 3.10412 144.658 6.25215 145.671 9.33866C147.478 14.8484 150.424 20.0943 153.418 24.4209C156.913 29.4695 160.721 34.191 164.777 38.6553L165.116 38.654C162.339 29.213 159.949 19.6076 157.873 9.84998C157.183 6.60799 156.498 3.31998 155.859 0H157.896C158.51 3.16886 159.166 6.31701 159.829 9.43378C161.937 19.34 164.368 29.082 167.2 38.6481L167.597 38.6474C165.414 26.7695 165.459 14.5548 168.603 2.75477C168.866 1.76801 169.173 0.851087 169.524 0H171.708C171.252 0.970468 170.859 2.05594 170.535 3.26965C167.446 14.8633 167.428 26.9089 169.631 38.6449L171.293 38.6437C176.648 38.6404 181.985 38.6371 187.279 38.5211C188.705 38.4898 190.148 38.4659 191.604 38.4418C203.176 38.25 215.531 38.0453 226.115 34.0445C226.758 33.8013 227.387 33.5376 228 33.2536V35.4418C227.612 35.6073 227.219 35.7651 226.822 35.9153C215.887 40.0487 203.157 40.2554 191.634 40.4425C190.176 40.4662 188.736 40.4896 187.323 40.5206C181.936 40.6386 176.55 40.6417 171.171 40.6449L170.029 40.6456C170.351 42.1818 170.71 43.7119 171.105 45.2342C173.68 47.768 176.331 50.2219 179.045 52.611C180.64 52.5037 182.154 52.425 183.56 52.352C185.473 52.2526 187.187 52.1636 188.634 52.0268C190.009 51.8967 191.387 51.7713 192.766 51.6458C203.607 50.6593 214.515 49.6667 224.761 46.32C225.867 45.9589 226.949 45.5725 228 45.1534V47.2994C227.138 47.6271 226.264 47.9331 225.382 48.2211C214.906 51.643 203.76 52.6557 192.946 53.6381L192.944 53.6382C191.564 53.7636 190.189 53.8885 188.822 54.0179C187.353 54.1569 185.553 54.2509 183.588 54.3535C182.814 54.3939 182.014 54.4357 181.199 54.4821C185.206 57.9197 189.34 61.228 193.556 64.4539C195.36 63.9843 197.155 63.5065 198.938 63.0167C206.147 61.0367 217.374 57.9046 224.244 54.3156C225.535 53.6411 226.799 52.8882 228 52.0566V54.4555C227.071 55.0472 226.122 55.5913 225.17 56.0883C218.07 59.7976 206.61 62.9836 199.468 64.9453C198.177 65.2997 196.881 65.6479 195.58 65.9912C202.462 71.185 209.531 76.1739 216.608 81.168C216.95 81.409 217.292 81.6506 217.634 81.8917C217.889 82.0719 218.144 82.2522 218.4 82.4325C219.907 83.4969 221.415 84.5624 222.919 85.6307C222.505 82.6217 222.088 79.6129 221.67 76.6035L221.668 76.5833C221.052 72.1466 220.437 67.7089 219.83 63.2687C219.755 62.7215 220.138 62.2173 220.686 62.1426C221.233 62.0678 221.737 62.4508 221.812 62.998C222.418 67.4364 223.034 71.8759 223.65 76.3169C224.154 79.9514 224.658 83.5867 225.157 87.2232C226.107 87.9004 227.054 88.5792 228 89.2599V91.7258C227.179 91.1321 226.355 90.5398 225.531 89.9487C226.38 96.1669 227.211 102.388 228 108.613V125.922C227.321 126.79 226.382 127.44 225.13 127.745C226.112 128.993 227.074 130.262 228 131.553V135.068C226.399 132.653 224.627 130.309 222.789 128.013C220.909 128.038 219.031 127.647 217.255 127.073C215.609 126.541 214.014 125.84 212.546 125.134C211.319 125.119 210.091 125.099 208.863 125.072C209.325 125.963 209.754 126.861 210.142 127.765C210.606 128.849 210.795 129.862 210.552 130.75C210.294 131.698 209.608 132.289 208.807 132.615C208.039 132.929 207.116 133.025 206.181 133.014C205.232 133.002 204.192 132.878 203.146 132.692C199.32 132.015 195.063 130.455 194.17 130.128C194.093 130.1 194.041 130.08 194.017 130.072C186.246 127.372 178.606 124.158 171.08 120.697C168.575 120.076 166.086 119.373 163.614 118.575C150.597 114.375 136.926 107.799 126.347 98.2156C125.418 97.712 124.491 97.205 123.566 96.6942C123.555 96.7845 123.545 96.8747 123.536 96.965C123.28 99.5304 123.906 102.141 125.147 104.679C127.641 109.779 132.531 114.407 137.083 117.393C150.16 125.971 165.856 130.963 180.879 135.496C193.332 139.253 205.945 142.327 218.824 143.998C219.285 144.058 219.862 144.151 220.518 144.256C222.616 144.592 225.52 145.057 228 144.995V146.995C225.294 147.053 222.108 146.54 220.036 146.207L220.035 146.206C219.441 146.111 218.94 146.03 218.567 145.982C205.545 144.292 192.82 141.188 180.302 137.411C165.305 132.886 149.338 127.824 135.986 119.065C131.253 115.961 126.055 111.088 123.351 105.558C121.993 102.781 121.243 99.7945 121.546 96.7663C121.583 96.3963 121.635 96.0271 121.704 95.6587C120.209 94.8222 118.721 93.9749 117.239 93.1154L117.657 91.0445C118.868 91.7508 120.084 92.449 121.306 93.1398C120.16 91.8521 119.07 90.5185 118.041 89.1379L118.58 86.4621C119.921 88.3923 121.387 90.2337 122.961 91.9891C123.669 90.601 124.644 89.2413 125.918 87.9267C130.416 83.2865 136.55 80.2387 142.908 77.9616C146.608 76.636 150.435 75.5561 154.096 74.5779C153.425 72.5858 153.025 70.4689 152.993 68.2032C152.933 64.0145 154.58 60.9079 157.249 58.65C158.89 57.2617 160.9 56.2068 163.101 55.3955C156.713 56.3605 150.298 57.1541 143.891 57.9468C137.166 58.7788 130.451 59.6096 123.783 60.6364L124.203 58.5506C130.714 57.5617 137.268 56.7502 143.797 55.9417C150.494 55.1124 157.166 54.2862 163.739 53.2751C163.769 53.2705 163.794 53.2682 163.799 53.2677L163.822 53.2657L163.852 53.2635L163.926 53.2587C163.984 53.2549 164.066 53.2496 164.169 53.2424C164.373 53.228 164.661 53.206 165.004 53.1741C165.692 53.1099 166.589 53.0066 167.473 52.846C168.226 52.7092 168.923 52.5388 169.461 52.3357C169.113 51.3173 168.77 50.2967 168.432 49.2741C168.307 49.1563 168.179 49.0382 168.047 48.92C167.404 48.3426 166.713 47.7905 166.066 47.2759L165.983 47.2101C165.383 46.7331 164.8 46.2692 164.387 45.8767C163.986 45.4964 163.97 44.8634 164.35 44.4629C164.73 44.0624 165.363 44.0461 165.764 44.4263C166.108 44.7535 166.625 45.1648 167.264 45.6731C167.035 44.9535 166.809 44.2329 166.585 43.5113C165.679 42.5723 164.783 41.622 163.899 40.6596C154.837 40.7043 145.8 40.8963 136.815 41.7874C136.404 41.8282 135.981 41.869 135.55 41.9107C133.03 42.1544 130.202 42.4277 127.355 42.9083L127.777 40.8136ZM167.799 40.6479C167.982 41.2539 168.167 41.8592 168.354 42.4637L168.384 42.4945C168.245 41.88 168.113 41.2643 167.986 40.6476L167.799 40.6479ZM194.673 128.183C189.853 126.508 185.083 124.633 180.354 122.622C189.013 124.096 197.796 124.751 206.564 125.012C207.209 126.188 207.795 127.367 208.303 128.553C208.688 129.45 208.694 129.962 208.623 130.224C208.568 130.425 208.432 130.608 208.052 130.763C207.64 130.932 207.023 131.024 206.205 131.014C205.402 131.004 204.477 130.897 203.495 130.723C199.883 130.083 195.841 128.608 194.866 128.252C194.772 128.218 194.707 128.195 194.673 128.183ZM171.744 118.801C182.724 121.501 194.028 122.586 205.391 122.973C204.865 122.1 204.315 121.228 203.747 120.359C197.985 116.894 192.481 112.954 187.186 108.978C178.966 102.806 170.929 96.1694 163.777 88.7094C160.305 85.088 156.852 81.1189 154.821 76.4549C151.125 77.4394 147.301 78.5125 143.582 79.8445C137.339 82.0807 131.54 85.0008 127.354 89.3188C126 90.7158 125.048 92.1391 124.427 93.5672C125.42 94.6007 126.451 95.6028 127.516 96.5742C133.542 99.8369 139.651 102.96 145.76 106.045L147.208 106.776C155.296 110.862 163.461 114.986 171.744 118.801ZM208.489 123.062C208.244 123.057 207.998 123.05 207.753 123.044C207.645 122.857 207.536 122.67 207.426 122.483C207.779 122.678 208.134 122.871 208.489 123.062ZM211.467 122.363C209.335 121.28 207.237 120.112 205.169 118.879C204.889 118.454 204.606 118.031 204.323 117.61C203.541 116.45 202.753 115.312 201.976 114.19C200.541 112.118 199.144 110.101 197.895 108.103C190.273 95.9073 183.853 83.2978 178.414 70.3079L178.73 70.2299C180.769 74.1132 182.998 77.858 185.375 81.4274C192.114 91.5449 200.034 100.894 207.878 110.152L207.879 110.153C210.41 113.14 212.932 116.118 215.405 119.109C216.273 120.159 217.157 121.213 218.046 122.272C218.296 122.569 218.546 122.867 218.796 123.166C218.276 123.164 217.756 123.163 217.239 123.163C215.832 123.161 214.424 123.154 213.017 123.139C212.487 122.879 211.97 122.618 211.467 122.363ZM177.789 68.4021L177.639 68.4392C177.375 67.7957 177.114 67.1514 176.854 66.5061C177.161 67.1414 177.473 67.7734 177.789 68.4021ZM179.781 67.9102C177.667 63.7554 175.781 59.4528 174.171 55.0478C175.574 54.8878 176.978 54.7646 178.353 54.6643C182.485 58.2729 186.75 61.7302 191.099 65.0877C187.612 65.979 184.098 66.8456 180.579 67.7136L179.781 67.9102ZM176.275 52.8254C174.891 51.5846 173.523 50.3255 172.173 49.046C172.583 50.4101 173.021 51.7667 173.485 53.1144C174.42 53.0024 175.353 52.9074 176.275 52.8254ZM175.677 68.9256C173.87 64.5087 172.174 60.0496 170.58 55.5498C169.599 55.7156 168.631 55.9062 167.686 56.1264C164.033 56.9775 160.816 58.2515 158.541 60.1768C156.308 62.0658 154.942 64.6108 154.993 68.1745C155.023 70.258 155.397 72.2117 156.033 74.0645L156.969 73.8183C158.567 73.3981 160.116 72.9908 161.59 72.5833C166.23 71.3003 170.947 70.1013 175.677 68.9256ZM157.404 75.7727L156.778 75.9371C158.662 80.1062 161.821 83.7801 165.22 87.3253C172.268 94.6769 180.212 101.241 188.387 107.379C192.479 110.452 196.669 113.481 200.987 116.276C200.782 115.98 200.577 115.683 200.372 115.387C198.917 113.287 197.471 111.198 196.199 109.163C188.459 96.7782 181.952 83.9761 176.45 70.7945C171.629 71.9917 166.834 73.2082 162.123 74.5109C160.601 74.9319 159.021 75.3475 157.404 75.7727ZM181.071 69.6522C185.093 68.66 189.122 67.6665 193.117 66.6341L193.417 66.8624C200.628 72.3387 208.051 77.5774 215.449 82.7981L215.481 82.8203C216.07 83.2357 216.658 83.651 217.246 84.0663C219.267 85.4927 221.284 86.9192 223.293 88.3506C224.277 95.5231 225.239 102.697 226.144 109.878C226.226 110.53 226.396 111.417 226.585 112.407C226.685 112.932 226.791 113.486 226.892 114.048C227.192 115.718 227.471 117.558 227.537 119.301C227.592 120.755 227.496 122.071 227.182 123.137C225.25 123.171 223.322 123.176 221.411 123.173C220.787 122.424 220.164 121.682 219.546 120.946C218.665 119.896 217.794 118.86 216.946 117.834C214.439 114.801 211.893 111.797 209.349 108.793C201.524 99.556 193.709 90.331 187.04 80.3187C184.786 76.9352 182.671 73.397 180.73 69.7362L181.071 69.6522ZM223.065 125.174C224.03 125.173 225.001 125.168 225.976 125.156C225.574 125.492 225.077 125.725 224.458 125.845C224.208 125.893 223.957 125.93 223.703 125.957C223.491 125.695 223.278 125.434 223.065 125.174ZM220.47 125.171C220.675 125.418 220.879 125.666 221.084 125.914C220.026 125.78 218.949 125.519 217.87 125.17L217.85 125.164C218.396 125.165 218.946 125.167 219.499 125.168L220.47 125.171ZM144.858 107.83C142.049 106.412 139.236 104.983 136.428 103.535C143.289 108.15 150.894 111.83 158.524 114.687C154.436 112.668 150.38 110.619 146.352 108.584L144.858 107.83Z" fill="#2E2F60"/>
<path d="M228 15.928V12.8323C223.669 7.90965 218.544 3.63764 212.903 0L209.096 0C216.363 4.29961 222.855 9.60174 228 15.928Z" fill="#2E2F60"/>
<path d="M224.237 0C225.513 0.616384 226.772 1.28531 228 2.00457V0H224.237Z" fill="#2E2F60"/>
<path d="M99.9627 538.965L100.35 537L228 569.365V571.428L99.9627 538.965Z" fill="#E9B220"/>
<path d="M97 554.009L97.4233 551.859L228 644.743V647.193L97 554.009Z" fill="#E9B220"/>
</svg>
