<svg width="147" height="576" viewBox="0 0 147 576" fill="none" xmlns="http://www.w3.org/2000/svg">
<g clip-path="url(#clip0_221_610)">
<path d="M-103 50.9171L107 0L147 512.354L-103 576V50.9171Z" fill="white"/>
<path d="M-93 240.983L58.2 218L87 449.271L-93 478V240.983Z" fill="#2E2F60"/>
<path d="M17.5461 456.983C23.819 464.461 29.8658 472.812 37.9427 478.547C45.803 484.128 56.3626 487.351 65.9499 488C69.5645 488.245 75.5951 488.27 78.127 484.829C82.2995 479.158 79.3665 467.418 77.579 461.695C73.5092 448.664 66.5234 436.355 60.9573 423.943C54.3071 409.114 49.188 392.457 39.891 378.944C38.6035 377.072 32.349 368.35 28.5968 370.276C26.4982 371.353 25.7473 374.911 25.3395 376.588C23.8 382.92 23.5257 388.014 23.4216 394.678C22.8826 429.167 29.5337 465.08 58.1566 487.789C63.8834 492.332 69.0754 494.591 75.5698 497.393C76.8772 497.957 81.6947 499.461 83.0587 501.017C86.7892 505.273 73.6685 508.07 68.0809 509.111C40.938 514.167 12.0487 512.898 -15.0884 508.476C-28.2179 506.337 -58.1964 500.684 -53.507 480.722C-50.9414 469.8 -41.064 462.401 -31.3447 457.889C-15.1403 450.367 3.33431 451.034 19.9816 444.963C29.4086 441.526 38.5793 436.376 43.5746 427.386C48.0986 419.245 49.2323 407.176 46.7406 398.242C43.9291 388.162 26.3085 376.781 17.6679 387.641C10.9929 396.032 11.1908 409.978 11.0923 419.957C10.9588 433.488 11.9946 447.41 17.9115 459.822C20.5931 465.448 24.6595 469.965 28.3533 474.893C30.8898 478.277 32.6217 481.577 32.1282 485.886C30.4261 500.745 8.38603 502.627 -2.91132 502.95C-17.4502 503.365 -40.326 503.225 -48.7579 488.574C-53.0248 481.16 -50.152 470.907 -43.948 465.379C-38.955 460.93 -30.787 458.408 -24.7691 456.621C-17.0765 454.337 2.53478 449.806 9.99637 448.104C23.6242 444.997 37.721 442.719 50.9113 437.957C60.8322 434.375 71.2005 428.962 73.104 417.631C76.3381 398.38 57.5516 387.303 41.0479 384.38C34.6345 383.244 27.5015 383.293 21.8994 387.037C14.4598 392.01 15.568 402.953 16.9982 410.443C20.6894 429.777 30.4776 447.717 42.4178 463.235C50.2268 473.384 60.144 481.598 68.0505 491.654C71.5189 496.066 86.3355 514.797 74.5348 518.413C71.4188 519.367 65.144 519.45 62.2359 519.5C56.2092 519.604 50.18 519.585 44.153 519.5C31.5763 519.322 18.7361 518.775 7.07387 513.52C-0.815721 509.965 -7.97496 504.499 -12.8356 497.332C-17.4605 490.513 -20.5826 480.071 -16.1539 472.326C-9.62749 460.912 10.4174 460.296 21.5341 458.705C43.5601 455.553 66.1139 454.284 87.5947 448.134C99.4198 444.749 132.898 432.092 120.503 413.494C115.134 405.438 104.695 401.445 95.9664 398.574C82.6033 394.179 67.6898 391.795 55.7212 401.051C44.8333 409.471 45.7384 419.999 51.6419 431.614C55.8051 439.806 66.9591 454.247 73.2562 460.97C79.753 467.906 85.2894 472.161 93.531 476.554C104.273 482.279 116.733 485.379 126.592 492.742C131.08 496.094 132.966 500.322 131.523 505.789C130.435 509.911 128.245 514.836 124.796 517.567C118.834 522.287 108.463 521.009 101.537 520.255C84.1713 518.363 64.7786 509.74 54.3513 495.158C51.7905 491.577 49.999 486.648 49.8762 482.232C49.6565 474.331 57.5179 473.621 63.6363 472.628C74.1655 470.919 85.1965 468.943 95.9055 468.943" stroke="#2E2F60" stroke-width="2" stroke-linecap="round"/>
<path d="M59.8207 211.133C61.9435 226.669 64.1759 242.196 66.1361 257.753C66.6223 261.612 70.2136 273.562 63.6464 274.827C59.0142 275.719 53.9314 273.245 50.0136 271.254C41.8123 267.088 34.1201 261.686 26.7862 256.179C18.589 250.024 10.5982 243.423 3.49808 236.017C-1.85657 230.432 -6.89153 224.274 -7.00737 216.189C-7.22953 200.684 17.5454 201.986 27.7274 201.022C39.8613 199.874 52.3899 199.086 64.0714 195.271C71.8062 192.744 78.6761 188.908 81.955 181.164C89.1765 164.106 74.6559 151.373 60.1243 145.533C50.532 141.678 39.8335 139.66 29.5188 139.145C19.5806 138.649 11.4099 140.347 8.56864 151.012C1.45679 177.707 10.4105 206.657 25.2073 228.873C34.0822 242.198 44.997 254.159 55.1752 266.471C60.8125 273.291 67.2906 280.424 71.2977 288.449C75.3929 296.651 61.4633 293.479 57.6953 292.99C44.745 291.31 32.0757 288.221 19.5902 284.453C4.58062 279.924 -11.2513 274.897 -24.4659 266.229C-33.7509 260.139 -44.6425 247.226 -34.3641 236.623C-25.6803 227.665 -10.4982 224.687 0.856538 221.547C13.1174 218.157 25.9316 215.351 38.2025 211.981C45.3779 210.01 56.722 206.851 63.7071 203.202C70.1545 199.834 76.2162 194.402 77.0363 186.794C77.9136 178.655 73.3224 170.379 68.5044 164.211C52.6527 143.919 23.4118 133.796 -1.69392 133C-7.80542 132.806 -15.1982 133.355 -17.2396 140.538C-20.4001 151.658 -14.4647 164.234 -8.40405 172.99C14.2215 205.679 49.8248 224.66 80.4369 248.52C86.2834 253.077 101.246 265.141 87.0863 269.468C77.3405 272.447 66.2843 272.174 56.2379 272.163C38.2807 272.142 20.1367 271.179 2.92119 265.624C-17.6857 258.974 -39.6804 246.417 -48.4523 225.604C-51.5013 218.369 -54.7757 207.214 -50.942 199.569C-46.4002 190.513 -32.7855 189.635 -24.2837 188.792C-7.52378 187.13 9.49086 187.889 26.3004 187.521C38.9722 187.243 53.3508 187.56 65.4681 182.98C72.7475 180.228 78.3584 174.886 79.8903 167.147C82.4273 154.332 73.9101 142.577 65.2556 134.15C55.0065 124.172 42.6421 116.825 29.701 110.871C21.0561 106.894 9.37153 101.223 -0.509775 101.002C-6.90482 100.859 -7.31176 108.151 -7.52353 112.929C-8.18512 127.856 -5.23281 143.149 -2.14936 157.642C5.34125 192.85 16.9213 226.03 36.0468 256.633C39.9174 262.826 45.3082 269.36 48.2222 276.159C51.6207 284.088 34.0438 277.37 33.3445 277.127C16.4696 271.264 0.205834 262.964 -15.6911 254.938C-30.0505 247.687 -44.4572 240.199 -57.804 231.174C-61.0508 228.978 -66.6044 225.646 -67.7629 221.396C-69.7547 214.088 -58.6746 211.819 -54.0694 210.77C-35.4258 206.525 -16.0028 205.17 2.89083 202.263C2.98318 202.249 10.3663 201.898 10.2689 199.933C10.1467 197.465 5.64586 194.643 4.07497 193.151" stroke="#2E2F60" stroke-width="2" stroke-linecap="round"/>
</g>
<defs>
<clipPath id="clip0_221_610">
<rect width="147" height="576" fill="white"/>
</clipPath>
</defs>
</svg>
