<svg width="794" height="336" viewBox="0 0 794 336" fill="none" xmlns="http://www.w3.org/2000/svg">
<g clip-path="url(#clip0_218_488)">
<path d="M885 70.2736C869.063 84.1636 851.852 97.9556 832.382 106.692C812.707 115.521 790.657 120.844 769.865 125.422C741.238 131.725 684.662 141.845 655.903 146.233C601.929 154.468 548.528 156.323 494.011 155.207C428.745 153.872 362.01 149.295 300.991 124.056C276.353 113.865 246.846 98.7403 238.084 71.3141C230.87 48.7327 242.244 28.3735 261.918 16.7511C292.307 -1.20115 331.727 -1.28943 365.787 1.0781C404.635 3.77851 444.211 13.7313 475.907 37.3667C492.103 49.4435 505.79 66.2673 508.338 86.9222C511.187 110.019 499.88 132.316 487.499 150.915C472.134 173.996 452.243 193.689 428.89 208.665C386.873 235.609 338.631 255.514 292.135 273.243C266.101 283.17 239.433 291.095 211.71 294.509C183.033 298.039 154.056 297.173 125.294 299.646C83.3804 303.251 33.0197 307.522 0 336" stroke="white" stroke-width="2" stroke-linecap="round"/>
<path d="M896 58.5282C893.516 45.6977 889.97 34.0311 877.838 27.251C860.061 17.3153 837.511 10.5079 817.364 7.70269C779.762 2.46708 737.288 3.7763 702.99 21.191C688.95 28.3199 676.644 38.0663 664.388 47.8418C645.916 62.5748 626.4 75.7657 607.559 90.0009C557.378 127.916 506.869 166.682 459.986 208.659C444.335 222.672 429.247 238.13 411.359 249.385C396.494 258.738 378.465 260.671 361.3 261.83C323.305 264.396 271.746 267.599 246.601 233.029C235.737 218.093 229.616 200.376 222.515 183.507C213.867 162.96 206.227 144.196 201.294 122.386C198.209 108.746 196.189 93.7944 190.683 80.8784C188.919 76.7393 186.183 72.513 187.233 67.781C188.423 62.4206 197.652 62.9626 201.554 62.4379C211.604 61.0866 221.345 59.7011 231.499 59.7011C243.975 59.7011 254.275 60.9807 264.698 68.4327C275.468 76.1332 284.351 85.3304 291.647 96.3215C304.348 115.455 311.917 137.431 324.847 156.27C335.56 171.88 346.686 186.42 356.158 202.925C365.767 219.669 374.106 237.414 385.711 252.903C395.95 266.568 407.587 279.481 422.751 287.764C442.636 298.627 465.411 304.503 486.35 313.047C504.374 320.401 522.102 328.799 540.445 335.332C564.697 343.968 590.728 348.611 615.826 354.098C663.275 364.472 710.871 363.481 759.103 363.481C771.654 363.481 784.244 363.208 796.793 363.481C805.552 363.672 814.634 365.993 823.353 367" stroke="white" stroke-width="2" stroke-linecap="round"/>
</g>
<defs>
<clipPath id="clip0_218_488">
<rect width="794" height="336" fill="white"/>
</clipPath>
</defs>
</svg>
